<?xml version="1.0" standalone="yes"?>

<svg version="1.1" viewBox="0.0 0.0 960.0 720.0" fill="none" stroke="none" stroke-linecap="square" stroke-miterlimit="10" xmlns="http://www.w3.org/2000/svg" xmlns:xlink="http://www.w3.org/1999/xlink"><clipPath id="p.0"><path d="m0 0l960.0 0l0 720.0l-960.0 0l0 -720.0z" clip-rule="nonzero"></path></clipPath><g clip-path="url(#p.0)"><path fill="#000000" fill-opacity="0.0" d="m0 0l960.0 0l0 720.0l-960.0 0z" fill-rule="nonzero"></path><path fill="#000000" fill-opacity="0.0" d="m133.92126 360.0l0 0c0 -191.13402 154.94473 -346.07874 346.07874 -346.07874l0 0c91.78577 0 179.81226 36.46176 244.7146 101.36412c64.902405 64.90235 101.364136 152.92883 101.364136 244.71463l0 0c0 191.13403 -154.9447 346.07874 -346.07874 346.07874l0 0c-191.134 0 -346.07874 -154.9447 -346.07874 -346.07874z" fill-rule="nonzero"></path><path stroke="#000000" stroke-width="24.0" stroke-linejoin="round" stroke-linecap="butt" d="m133.92126 360.0l0 0c0 -191.13402 154.94473 -346.07874 346.07874 -346.07874l0 0c91.78577 0 179.81226 36.46176 244.7146 101.36412c64.902405 64.90235 101.364136 152.92883 101.364136 244.71463l0 0c0 191.13403 -154.9447 346.07874 -346.07874 346.07874l0 0c-191.134 0 -346.07874 -154.9447 -346.07874 -346.07874z" fill-rule="nonzero"></path><path fill="#000000" d="m463.63602 694.6911l16.341614 -28.2583l16.341614 28.2583z" fill-rule="nonzero"></path><path stroke="#000000" stroke-width="1.0" stroke-linejoin="round" stroke-linecap="butt" d="m463.63602 694.6911l16.341614 -28.2583l16.341614 28.2583z" fill-rule="nonzero"></path><path fill="#000000" d="m463.63602 25.275314l16.341614 28.258312l16.341614 -28.258312z" fill-rule="nonzero"></path><path stroke="#000000" stroke-width="1.0" stroke-linejoin="round" stroke-linecap="butt" d="m463.63602 25.275314l16.341614 28.258312l16.341614 -28.258312z" fill-rule="nonzero"></path><path fill="#000000" d="m145.26971 343.6416l28.258316 16.341614l-28.258316 16.341614z" fill-rule="nonzero"></path><path stroke="#000000" stroke-width="1.0" stroke-linejoin="round" stroke-linecap="butt" d="m145.26971 343.6416l28.258316 16.341614l-28.258316 16.341614z" fill-rule="nonzero"></path><path fill="#000000" d="m814.68555 343.6416l-28.2583 16.341614l28.2583 16.341614z" fill-rule="nonzero"></path><path stroke="#000000" stroke-width="1.0" stroke-linejoin="round" stroke-linecap="butt" d="m814.68555 343.6416l-28.2583 16.341614l28.2583 16.341614z" fill-rule="nonzero"></path><path fill="#000000" d="m231.75052 585.10004l31.53659 -8.426331l-8.4263 31.536621z" fill-rule="nonzero"></path><path stroke="#000000" stroke-width="1.0" stroke-linejoin="round" stroke-linecap="butt" d="m231.75052 585.10004l31.53659 -8.426331l-8.4263 31.536621z" fill-rule="nonzero"></path><path fill="#000000" d="m705.0944 111.75611l-8.42627 31.536598l31.53656 -8.4263z" fill-rule="nonzero"></path><path stroke="#000000" stroke-width="1.0" stroke-linejoin="round" stroke-linecap="butt" d="m705.0944 111.75611l-8.42627 31.536598l31.53656 -8.4263z" fill-rule="nonzero"></path><path fill="#000000" d="m254.86081 111.75611l8.4263 31.536598l-31.53659 -8.4263z" fill-rule="nonzero"></path><path stroke="#000000" stroke-width="1.0" stroke-linejoin="round" stroke-linecap="butt" d="m254.86081 111.75611l8.4263 31.536598l-31.53659 -8.4263z" fill-rule="nonzero"></path><path fill="#000000" d="m728.2047 585.10004l-31.53656 -8.426331l8.42627 31.536621z" fill-rule="nonzero"></path><path stroke="#000000" stroke-width="1.0" stroke-linejoin="round" stroke-linecap="butt" d="m728.2047 585.10004l-31.53656 -8.426331l8.42627 31.536621z" fill-rule="nonzero"></path><path fill="#000000" fill-opacity="0.0" d="m230.86331 360.02512l0 0c0 -137.61023 111.555115 -249.16536 249.16534 -249.16536l0 0c66.082794 0 129.45895 26.251266 176.1865 72.978836c46.7276 46.72757 72.97888 110.10376 72.97888 176.18652l0 0c0 137.61023 -111.555115 249.16537 -249.16537 249.16537l0 0c-137.61023 0 -249.16534 -111.555145 -249.16534 -249.16537z" fill-rule="nonzero"></path><path stroke="#000000" stroke-width="16.0" stroke-linejoin="round" stroke-linecap="butt" d="m230.86331 360.02512l0 0c0 -137.61023 111.555115 -249.16536 249.16534 -249.16536l0 0c66.082794 0 129.45895 26.251266 176.1865 72.978836c46.7276 46.72757 72.97888 110.10376 72.97888 176.18652l0 0c0 137.61023 -111.555115 249.16537 -249.16537 249.16537l0 0c-137.61023 0 -249.16534 -111.555145 -249.16534 -249.16537z" fill-rule="nonzero"></path><path fill="#000000" d="m723.2719 281.6468l14.945618 -18.137482l-23.175537 -3.9031372z" fill-rule="nonzero"></path><path stroke="#000000" stroke-width="1.0" stroke-linejoin="round" stroke-linecap="butt" d="m723.2719 281.6468l14.945618 -18.137482l-23.175537 -3.9031372z" fill-rule="nonzero"></path><path fill="#000000" d="m244.90039 460.36823l-23.175537 -3.9031372l14.945602 -18.137482z" fill-rule="nonzero"></path><path stroke="#000000" stroke-width="1.0" stroke-linejoin="round" stroke-linecap="butt" d="m244.90039 460.36823l-23.175537 -3.9031372l14.945602 -18.137482z" fill-rule="nonzero"></path><path fill="#000000" d="m558.37665 603.2984l18.137512 14.945618l3.9031372 -23.175537z" fill-rule="nonzero"></path><path stroke="#000000" stroke-width="1.0" stroke-linejoin="round" stroke-linecap="butt" d="m558.37665 603.2984l18.137512 14.945618l3.9031372 -23.175537z" fill-rule="nonzero"></path><path fill="#000000" d="m379.65527 124.92688l3.9031067 -23.17553l18.137512 14.945595z" fill-rule="nonzero"></path><path stroke="#000000" stroke-width="1.0" stroke-linejoin="round" stroke-linecap="butt" d="m379.65527 124.92688l3.9031067 -23.17553l18.137512 14.945595z" fill-rule="nonzero"></path><path fill="#000000" d="m707.4399 476.63605l23.393005 -2.2569885l-13.627502 -19.147339z" fill-rule="nonzero"></path><path stroke="#000000" stroke-width="1.0" stroke-linejoin="round" stroke-linecap="butt" d="m707.4399 476.63605l23.393005 -2.2569885l-13.627502 -19.147339z" fill-rule="nonzero"></path><path fill="#000000" d="m242.80943 264.75345l-13.627518 -19.147308l23.393051 -2.2570038z" fill-rule="nonzero"></path><path stroke="#000000" stroke-width="1.0" stroke-linejoin="round" stroke-linecap="butt" d="m242.80943 264.75345l-13.627518 -19.147308l23.393051 -2.2570038z" fill-rule="nonzero"></path><path fill="#000000" d="m363.4026 587.47845l2.2569885 23.393066l19.147308 -13.627502z" fill-rule="nonzero"></path><path stroke="#000000" stroke-width="1.0" stroke-linejoin="round" stroke-linecap="butt" d="m363.4026 587.47845l2.2569885 23.393066l19.147308 -13.627502z" fill-rule="nonzero"></path><path fill="#000000" d="m575.28516 122.84805l19.147339 -13.627518l2.256958 23.393051z" fill-rule="nonzero"></path><path stroke="#000000" stroke-width="1.0" stroke-linejoin="round" stroke-linecap="butt" d="m575.28516 122.84805l19.147339 -13.627518l2.256958 23.393051z" fill-rule="nonzero"></path><path fill="#000000" fill-opacity="0.0" d="m486.28476 285.79l0 0c41.00821 3.5050354 71.41055 39.59018 67.90549 80.59842l0 0c-1.6831665 19.69284 -11.120361 37.910492 -26.235474 50.645233c-15.115173 12.734741 -34.670074 18.94345 -54.362915 17.260284l0 0c-41.00824 -3.505066 -71.41058 -39.59021 -67.90552 -80.59845l0 0c3.5050354 -41.00821 39.59018 -71.41055 80.59842 -67.90549z" fill-rule="nonzero"></path><path stroke="#000000" stroke-width="12.0" stroke-linejoin="round" stroke-linecap="butt" d="m486.28476 285.79l0 0c41.00821 3.5050354 71.41055 39.59018 67.90549 80.59842l0 0c-1.6831665 19.69284 -11.120361 37.910492 -26.235474 50.645233c-15.115173 12.734741 -34.670074 18.94345 -54.362915 17.260284l0 0c-41.00824 -3.505066 -71.41058 -39.59021 -67.90552 -80.59845l0 0c3.5050354 -41.00821 39.59018 -71.41055 80.59842 -67.90549z" fill-rule="nonzero"></path><path fill="#000000" d="m526.69653 411.5392l-1.7489624 -6.545685l6.5456543 1.7489319z" fill-rule="nonzero"></path><path stroke="#000000" stroke-width="1.0" stroke-linejoin="round" stroke-linecap="butt" d="m526.69653 411.5392l-1.7489624 -6.545685l6.5456543 1.7489319z" fill-rule="nonzero"></path><path fill="#000000" d="m428.45013 313.29282l6.545685 1.7489319l-1.7489624 -6.5456543z" fill-rule="nonzero"></path><path stroke="#000000" stroke-width="1.0" stroke-linejoin="round" stroke-linecap="butt" d="m428.45013 313.29282l6.545685 1.7489319l-1.7489624 -6.5456543z" fill-rule="nonzero"></path><path fill="#000000" d="m428.45013 406.74246l6.545685 -1.7489319l-1.7489624 6.545685z" fill-rule="nonzero"></path><path stroke="#000000" stroke-width="1.0" stroke-linejoin="round" stroke-linecap="butt" d="m428.45013 406.74246l6.545685 -1.7489319l-1.7489624 6.545685z" fill-rule="nonzero"></path><path fill="#000000" d="m526.69653 308.4961l-1.7489624 6.5456543l6.5456543 -1.7489319z" fill-rule="nonzero"></path><path stroke="#000000" stroke-width="1.0" stroke-linejoin="round" stroke-linecap="butt" d="m526.69653 308.4961l-1.7489624 6.5456543l6.5456543 -1.7489319z" fill-rule="nonzero"></path><path fill="#000000" d="m476.57993 429.48767l3.3917542 -5.865143l3.3917847 5.865143z" fill-rule="nonzero"></path><path stroke="#000000" stroke-width="1.0" stroke-linejoin="round" stroke-linecap="butt" d="m476.57993 429.48767l3.3917542 -5.865143l3.3917847 5.865143z" fill-rule="nonzero"></path><path fill="#000000" d="m476.57993 290.5476l3.3917542 5.865143l3.3917847 -5.865143z" fill-rule="nonzero"></path><path stroke="#000000" stroke-width="1.0" stroke-linejoin="round" stroke-linecap="butt" d="m476.57993 290.5476l3.3917542 5.865143l3.3917847 -5.865143z" fill-rule="nonzero"></path><path fill="#000000" d="m410.50168 356.6259l5.8651123 3.3917542l-5.8651123 3.3917847z" fill-rule="nonzero"></path><path stroke="#000000" stroke-width="1.0" stroke-linejoin="round" stroke-linecap="butt" d="m410.50168 356.6259l5.8651123 3.3917542l-5.8651123 3.3917847z" fill-rule="nonzero"></path><path fill="#000000" d="m549.4417 356.6259l-5.8651123 3.3917542l5.8651123 3.3917847z" fill-rule="nonzero"></path><path stroke="#000000" stroke-width="1.0" stroke-linejoin="round" stroke-linecap="butt" d="m549.4417 356.6259l-5.8651123 3.3917542l5.8651123 3.3917847z" fill-rule="nonzero"></path><path fill="#000000" d="m416.0433 320.51532l-46.695587 -71.132965l71.132996 46.695587z" fill-rule="nonzero"></path><path stroke="#000000" stroke-width="1.0" stroke-linejoin="round" stroke-linecap="butt" d="m416.0433 320.51532l-46.695587 -71.132965l71.132996 46.695587z" fill-rule="nonzero"></path><path fill="#000000" d="m519.55023 424.02222l71.132935 46.695587l-46.695557 -71.132965z" fill-rule="nonzero"></path><path stroke="#000000" stroke-width="1.0" stroke-linejoin="round" stroke-linecap="butt" d="m519.55023 424.02222l71.132935 46.695587l-46.695557 -71.132965z" fill-rule="nonzero"></path><path fill="#000000" d="m519.47925 296.0493l71.132996 -46.69557l-46.695618 71.13298z" fill-rule="nonzero"></path><path stroke="#000000" stroke-width="1.0" stroke-linejoin="round" stroke-linecap="butt" d="m519.47925 296.0493l71.132996 -46.69557l-46.695618 71.13298z" fill-rule="nonzero"></path><path fill="#000000" d="m415.97235 399.55618l-46.695587 71.132996l71.132996 -46.695587z" fill-rule="nonzero"></path><path stroke="#000000" stroke-width="1.0" stroke-linejoin="round" stroke-linecap="butt" d="m415.97235 399.55618l-46.695587 71.132996l71.132996 -46.695587z" fill-rule="nonzero"></path><path fill="#000000" fill-opacity="0.0" d="m456.61417 57.854565l46.64569 0l0 47.748035l-46.64569 0z" fill-rule="nonzero"></path><path fill="#000000" d="m488.69885 90.80358q0 2.390625 -0.75 4.359375q-0.75 1.96875 -2.203125 3.359375q-1.453125 1.390625 -3.609375 2.15625q-2.140625 0.765625 -4.984375 0.765625q-2.09375 0 -4.03125 -0.5q-1.9375 -0.484375 -3.390625 -1.234375l0 -6.15625q0.640625 0.546875 1.5 1.015625q0.875 0.453125 1.859375 0.8125q0.984375 0.34375 2.015625 0.546875q1.046875 0.1875 2.046875 0.1875q0.859375 0 1.765625 -0.3125q0.921875 -0.3125 1.640625 -1.03125q0.734375 -0.734375 1.203125 -1.90625q0.46875 -1.171875 0.46875 -2.90625l0 -17.609375l-12.25 0l0 -5.25l18.71875 0l0 23.703125z" fill-rule="nonzero"></path><path fill="#000000" fill-opacity="0.0" d="m503.3517 662.1958l-46.64569 0l0 -47.748047l46.64569 0z" fill-rule="nonzero"></path><path fill="#000000" d="m472.6889 619.12177l1.859375 6.671875l11.8125 0l1.90625 -6.671875l6.3125 0l-10.015625 33.828125l-8.890625 0l-10.015625 -33.828125l7.03125 0zm7.6875 27.609375l4.453125 -15.734375l-8.84375 0l4.390625 15.734375z" fill-rule="nonzero"></path><path fill="#000000" fill-opacity="0.0" d="m782.1706 336.63123l0 46.64569l-47.748047 0l0 -46.64569z" fill-rule="nonzero"></path><path fill="#000000" d="m739.0966 347.98154l4.8125 0l23.234375 15.484375l0 -14.984375l5.78125 0l0 23.046875l-5.1875 0l-22.875 -15.578125l0 15.796875l-5.765625 0l0 -23.765625z" fill-rule="nonzero"></path><path fill="#000000" fill-opacity="0.0" d="m177.82939 383.36877l0 -46.64569l47.74803 0l0 46.64569z" fill-rule="nonzero"></path><path fill="#000000" d="m220.90341 355.5497l-20.1875 9.0625l-4.34375 1.859375l14.03125 0l10.5 0l0 5.796875l-33.828125 0l0 -7.8125l20.3125 -9.234375l3.96875 -1.640625l-14.9375 0l-9.34375 0l0 -5.796875l33.828125 0l0 7.765625z" fill-rule="nonzero"></path><path fill="#000000" fill-opacity="0.0" d="m677.1128 129.8089l32.97638 32.97638l-33.763794 33.76378l-32.97632 -32.97638z" fill-rule="nonzero"></path><path fill="#000000" d="m680.5967 176.59808q-2.2870483 2.2870483 -4.640381 3.402954q-2.3312378 1.1158905 -4.640381 1.1269379q-2.2870483 0.011062622 -4.51886 -1.0496063q-2.2318115 -1.0606537 -4.286804 -3.1156921q-2.2980957 -2.2980957 -3.369812 -4.5409393q-1.060669 -2.2318115 -0.99438477 -4.353134q0.088378906 -2.1213226 1.1932373 -4.154251q1.1269531 -2.0329285 3.0825195 -3.9885254l15.865723 -15.865707l4.5078125 4.5078125l-15.589478 15.589493q-1.215332 1.215332 -1.9445801 2.36438q-0.71813965 1.1380005 -0.850708 2.309143q-0.121520996 1.1601105 0.3314209 2.276001q0.45300293 1.1159058 1.6462402 2.3091583q1.1159058 1.1158905 2.15448 1.6020355q1.060669 0.48612976 2.1986694 0.3645935q1.1600952 -0.121536255 2.397522 -0.8507385q1.2484741 -0.74024963 2.6516724 -2.1434174l15.41272 -15.41272l4.5078125 4.5078125l-15.114441 15.11441z" fill-rule="nonzero"></path><path fill="#000000" fill-opacity="0.0" d="m282.82748 590.1911l-32.976395 -32.97638l33.76378 -33.763794l32.97638 32.97638z" fill-rule="nonzero"></path><path fill="#000000" d="m279.3436 543.4019q2.2870483 -2.2870483 4.640381 -3.402954q2.3312378 -1.1159058 4.640381 -1.1269531q2.2870483 -0.011047363 4.51886 1.0496216q2.2318115 1.060669 4.2868347 3.1156616q2.2980957 2.2980957 3.369812 4.5409546q1.060669 2.2318115 0.99435425 4.3531494q-0.088378906 2.121338 -1.1932373 4.154236q-1.1269531 2.032959 -3.08255 3.9885254l-15.865692 15.865723l-4.5078125 -4.5078125l15.589508 -15.589478q1.215332 -1.215332 1.944519 -2.36438q0.71817017 -1.1380005 0.8507385 -2.309143q0.12155151 -1.1600952 -0.33145142 -2.276001q-0.4529724 -1.1159058 -1.6462402 -2.309143q-1.1158752 -1.1159058 -2.1544495 -1.6020508q-1.060669 -0.48614502 -2.1986694 -0.36462402q-1.1600952 0.121520996 -2.397522 0.85076904q-1.2485046 0.7402344 -2.6516418 2.1433716l-15.41272 15.41272l-4.5078125 -4.5077515l15.11441 -15.114441z" fill-rule="nonzero"></path><path fill="#000000" fill-opacity="0.0" d="m710.1911 557.13696l-32.97638 32.97638l-33.763794 -33.763794l32.97638 -32.97638z" fill-rule="nonzero"></path><path fill="#000000" d="m664.20844 556.5218q-1.6903687 -1.6904297 -2.552185 -3.612854q-0.8618164 -1.9224243 -0.8175659 -3.9332886q0.044189453 -2.0108032 1.0274658 -4.0769043q0.97229004 -2.0550537 2.9831543 -4.065857q1.4804688 -1.4805298 3.2040405 -2.4970093q1.7125244 -1.0274658 3.2703857 -1.5246582l4.3531494 4.3530884q-0.8397217 0.066345215 -1.7788696 0.3425293q-0.9390869 0.29833984 -1.8892822 0.7402344q-0.93914795 0.45300293 -1.8119507 1.0385742q-0.87286377 0.607666 -1.579956 1.3147583q-0.607666 0.60772705 -1.0275269 1.4694824q-0.43084717 0.87286377 -0.43084717 1.8892822q0 1.0385742 0.49713135 2.1986694q0.49719238 1.1600952 1.7236328 2.3864746l12.45166 12.451721l8.662048 -8.662048l3.7123413 3.7122803l-13.236145 13.236206l-16.760681 -16.760681z" fill-rule="nonzero"></path><path fill="#000000" fill-opacity="0.0" d="m249.8089 162.8516l32.97638 -32.97638l33.763794 33.76378l-32.97638 32.97638z" fill-rule="nonzero"></path><path fill="#000000" d="m278.83203 154.41797l20.163574 20.16359l-4.607239 4.607239l-20.163574 -20.16359l-6.5517883 6.5517883l-3.7565308 -3.7565002l17.710815 -17.710815l3.7565308 3.7565002l-6.5517883 6.5517883z" fill-rule="nonzero"></path><path fill="#000000" d="m492.49442 333.14633l29.606293 -15.24411l-15.24408 29.606323z" fill-rule="nonzero"></path><path stroke="#000000" stroke-width="1.0" stroke-linejoin="round" stroke-linecap="butt" d="m492.49442 333.14633l29.606293 -15.24411l-15.24408 29.606323z" fill-rule="nonzero"></path><path fill="#434343" d="m453.0705 372.57022l-15.246948 29.621521l29.621521 -15.246948z" fill-rule="nonzero"></path><path stroke="#434343" stroke-width="1.0" stroke-linejoin="round" stroke-linecap="butt" d="m453.0705 372.57022l-15.246948 29.621521l29.621521 -15.246948z" fill-rule="nonzero"></path><path fill="#434343" d="m506.8947 372.52017l15.246948 29.62149l-29.62149 -15.246948z" fill-rule="nonzero"></path><path stroke="#434343" stroke-width="1.0" stroke-linejoin="round" stroke-linecap="butt" d="m506.8947 372.52017l15.246948 29.62149l-29.62149 -15.246948z" fill-rule="nonzero"></path><path fill="#000000" d="m467.4708 333.09625l-29.606293 -15.24408l15.24408 29.606293z" fill-rule="nonzero"></path><path stroke="#000000" stroke-width="1.0" stroke-linejoin="round" stroke-linecap="butt" d="m467.4708 333.09625l-29.606293 -15.24408l15.24408 29.606293z" fill-rule="nonzero"></path><path fill="#000000" d="m495.91083 384.58005l-15.937012 210.80313l-15.937012 -210.80313z" fill-rule="nonzero"></path><path stroke="#000000" stroke-width="1.0" stroke-linejoin="round" stroke-linecap="butt" d="m495.91083 384.58005l-15.937012 210.80313l-15.937012 -210.80313z" fill-rule="nonzero"></path><path fill="#434343" d="m495.91083 335.45145l-15.937012 -210.80316l-15.937012 210.80316z" fill-rule="nonzero"></path><path stroke="#434343" stroke-width="1.0" stroke-linejoin="round" stroke-linecap="butt" d="m495.91083 335.45145l-15.937012 -210.80316l-15.937012 210.80316z" fill-rule="nonzero"></path><path fill="#000000" fill-opacity="0.0" d="m497.32928 342.6544l0 0c9.5815735 9.581604 9.5815735 25.116425 0 34.69803l0 0c-4.6012573 4.601227 -10.841858 7.1861877 -17.348999 7.1861877c-6.507141 0 -12.747772 -2.584961 -17.34903 -7.1861877l0 0c-9.5815735 -9.581604 -9.5815735 -25.116425 0 -34.69803l0 0c9.581604 -9.5815735 25.116425 -9.5815735 34.69803 0z" fill-rule="nonzero"></path><path stroke="#434343" stroke-width="16.0" stroke-linejoin="round" stroke-linecap="butt" d="m497.32928 342.6544l0 0c9.5815735 9.581604 9.5815735 25.116425 0 34.69803l0 0c-4.6012573 4.601227 -10.841858 7.1861877 -17.348999 7.1861877c-6.507141 0 -12.747772 -2.584961 -17.34903 -7.1861877l0 0c-9.5815735 -9.581604 -9.5815735 -25.116425 0 -34.69803l0 0c9.581604 -9.5815735 25.116425 -9.5815735 34.69803 0z" fill-rule="nonzero"></path><path fill="#000000" d="m487.95517 352.0315l0 0c4.400879 4.400879 4.400879 11.536133 0 15.937012l0 0c-2.1133728 2.1133728 -4.9797363 3.3006592 -7.968506 3.3006592c-2.9887695 0 -5.855133 -1.1872864 -7.968506 -3.3006592l0 0c-4.400879 -4.400879 -4.400879 -11.536133 0 -15.937012l0 0c4.400879 -4.400879 11.536133 -4.400879 15.937012 0z" fill-rule="nonzero"></path><path stroke="#000000" stroke-width="1.0" stroke-linejoin="round" stroke-linecap="butt" d="m487.95517 352.0315l0 0c4.400879 4.400879 4.400879 11.536133 0 15.937012l0 0c-2.1133728 2.1133728 -4.9797363 3.3006592 -7.968506 3.3006592c-2.9887695 0 -5.855133 -1.1872864 -7.968506 -3.3006592l0 0c-4.400879 -4.400879 -4.400879 -11.536133 0 -15.937012l0 0c4.400879 -4.400879 11.536133 -4.400879 15.937012 0z" fill-rule="nonzero"></path></g></svg>
